<svg width="977" height="390" viewBox="0 0 977 390" fill="none" xmlns="http://www.w3.org/2000/svg">
<g filter="url(#filter0_d_77_3854)">
<path d="M30.8219 375.398C373.786 348.159 409.694 -266.811 891.845 244" stroke="url(#paint0_linear_77_3854)" stroke-width="12"/>
</g>
<path d="M899.304 295.57C887.135 283.524 886.431 263.332 897.732 250.468C909.033 237.604 928.059 236.941 940.228 248.987L961.009 269.556L920.085 316.14L899.304 295.57Z" fill="#4A6D9B"/>
<path d="M947.942 284.292L952.933 278.611L966.302 291.844C967.786 293.313 967.872 295.775 966.494 297.344C965.115 298.913 962.795 298.994 961.311 297.525L947.942 284.292Z" fill="#282828"/>
<path d="M928.379 306.561L933.37 300.88L946.738 314.113C948.222 315.582 948.308 318.044 946.93 319.613C945.552 321.182 943.232 321.263 941.748 319.794L928.379 306.561Z" fill="#282828"/>
<rect width="22.3829" height="17.7718" transform="matrix(0.659999 -0.751266 0.71071 0.703485 880.975 249.813)" fill="#4A6D9B"/>
<defs>
<filter id="filter0_d_77_3854" x="26.4341" y="35.8202" width="873.786" height="353.57" filterUnits="userSpaceOnUse" color-interpolation-filters="sRGB">
<feFlood flood-opacity="0" result="BackgroundImageFix"/>
<feColorMatrix in="SourceAlpha" type="matrix" values="0 0 0 0 0 0 0 0 0 0 0 0 0 0 0 0 0 0 127 0" result="hardAlpha"/>
<feOffset dy="4"/>
<feGaussianBlur stdDeviation="2"/>
<feComposite in2="hardAlpha" operator="out"/>
<feColorMatrix type="matrix" values="0 0 0 0 0 0 0 0 0 0 0 0 0 0 0 0 0 0 0.25 0"/>
<feBlend mode="normal" in2="BackgroundImageFix" result="effect1_dropShadow_77_3854"/>
<feBlend mode="normal" in="SourceGraphic" in2="effect1_dropShadow_77_3854" result="shape"/>
</filter>
<linearGradient id="paint0_linear_77_3854" x1="11.8119" y1="213.97" x2="934.891" y2="105.266" gradientUnits="userSpaceOnUse">
<stop stop-color="#4A6D9B"/>
<stop offset="1" stop-color="#A4D3E9"/>
</linearGradient>
</defs>
</svg>
